<svg width="587" height="587" viewBox="0 0 587 587" fill="none" xmlns="http://www.w3.org/2000/svg">
<g clip-path="url(#clip0)">
<path d="M283.717 253.212L542.799 123.671L287.963 0.968746C285.184 -0.371571 281.946 -0.322654 279.206 1.10571L34.6231 128.289C34.5155 128.348 34.447 128.436 34.3394 128.494C34.3296 128.504 34.3198 128.504 34.3101 128.514L283.717 253.212Z" fill="#121113"/>
<path d="M293.5 270.196V587C294.85 587 296.161 586.628 297.423 586.08C297.57 586.012 297.736 586.041 297.873 585.973L552.24 458.789C555.556 457.126 557.65 453.741 557.65 450.033V138.131L293.5 270.196Z" fill="#222725"/>
<path d="M273.933 270.196L29.35 147.905V450.034C29.35 453.742 31.4436 457.127 34.7602 458.79L273.933 578.381V270.196Z" fill="#121113"/>
</g>
<defs>
<clipPath id="clip0">
<rect width="587" height="587" fill="white"/>
</clipPath>
</defs>
</svg>
